<?xml version="1.0" encoding="utf-8"?>
<svg width="1200pt" height="1200pt" version="1.1" viewBox="0 0 1200 1200" xmlns="http://www.w3.org/2000/svg">
  <defs/>
  <g transform="matrix(1.853406, 0, 0, 1.853406, -511.129272, -511.164215)" style="">
    <path d="m830.77 830.77h92.309v92.309h-92.309z" style="fill: rgb(255, 255, 255);"/>
    <path d="m553.85 553.85h92.309v92.309h-92.309z" style="fill: rgb(255, 255, 255);"/>
    <path d="m461.54 646.15h92.309v92.309h-92.309z" style="fill: rgb(255, 255, 255);"/>
    <path d="m369.23 738.46h92.309v92.309h-92.309z" style="fill: rgb(255, 255, 255);"/>
    <path d="m276.92 830.77h92.309v92.309h-92.309z" style="fill: rgb(255, 255, 255);"/>
    <path d="m646.15 461.54h92.309v92.309h-92.309z" style="fill: rgb(255, 255, 255);"/>
    <path d="m738.46 369.23h92.309v92.309h-92.309z" style="fill: rgb(255, 255, 255);"/>
    <path d="m830.77 276.92h92.309v92.309h-92.309z" style="fill: rgb(255, 255, 255);"/>
    <path d="m646.15 646.15h92.309v92.309h-92.309z" style="fill: rgb(255, 255, 255);"/>
    <path d="m738.46 738.46h92.309v92.309h-92.309z" style="fill: rgb(255, 255, 255);"/>
    <path d="m461.54 461.54h92.309v92.309h-92.309z" style="fill: rgb(255, 255, 255);"/>
    <path d="m276.92 276.92h92.309v92.309h-92.309z" style="fill: rgb(255, 255, 255);"/>
    <path d="m369.23 369.23h92.309v92.309h-92.309z" style="fill: rgb(255, 255, 255);"/>
  </g>
</svg>