<?xml version="1.0" encoding="utf-8"?>
<svg width="1200pt" height="1200pt" version="1.1" viewBox="0 0 1200 1200" xmlns="http://www.w3.org/2000/svg">
  <defs/>
  <g transform="matrix(1.714326, 0, 0, 1.714326, -429.194824, -430.243958)" style="">
    <path d="m392.31 530.77v-92.309h-46.156v46.156h-46.152v46.152z" style="fill: rgb(255, 255, 255);"/>
    <path d="m669.23 392.31h92.309v-46.156h-46.156v-46.152h-46.152z" style="fill: rgb(255, 255, 255);"/>
    <path d="m807.69 669.23v92.309h46.156v-46.156h46.152v-46.152z" style="fill: rgb(255, 255, 255);"/>
    <path d="m530.77 253.85h138.46v46.152h-138.46z" style="fill: rgb(255, 255, 255);"/>
    <path d="m900 530.77h46.152v138.46h-46.152z" style="fill: rgb(255, 255, 255);"/>
    <path d="m253.85 530.77h46.152v138.46h-46.152z" style="fill: rgb(255, 255, 255);"/>
    <path d="m530.77 438.46h138.46v46.152h-138.46z" style="fill: rgb(255, 255, 255);"/>
    <path d="m484.62 484.62h46.152v46.152h-46.152z" style="fill: rgb(255, 255, 255);"/>
    <path d="m438.46 530.77h46.152v138.46h-46.152z" style="fill: rgb(255, 255, 255);"/>
    <path d="m669.23 484.62h46.152v46.152h-46.152z" style="fill: rgb(255, 255, 255);"/>
    <path d="m715.38 530.77h46.152v138.46h-46.152z" style="fill: rgb(255, 255, 255);"/>
    <path d="m484.62 669.23h46.152v46.152h-46.152z" style="fill: rgb(255, 255, 255);"/>
    <path d="m669.23 669.23h46.152v46.152h-46.152z" style="fill: rgb(255, 255, 255);"/>
    <path d="m530.77 715.38h138.46v46.152h-138.46z" style="fill: rgb(255, 255, 255);"/>
    <path d="m530.77 807.69h-92.309v46.156h46.156v46.152h46.152z" style="fill: rgb(255, 255, 255);"/>
    <path d="m530.77 900h138.46v46.152h-138.46z" style="fill: rgb(255, 255, 255);"/>
    <path d="m484.62 392.31h46.152v-92.309h-46.152v46.152h-46.156v46.156z" style="fill: rgb(255, 255, 255);"/>
    <path d="m438.46 346.15v-46.152h-92.309v46.152z" style="fill: rgb(255, 255, 255);"/>
    <path d="m346.15 346.15h-46.152v92.309h46.152z" style="fill: rgb(255, 255, 255);"/>
    <path d="m807.69 484.62v46.152h92.309v-46.152h-46.152v-46.156h-46.156z" style="fill: rgb(255, 255, 255);"/>
    <path d="m761.54 300h92.309v46.152h-92.309z" style="fill: rgb(255, 255, 255);"/>
    <path d="m853.85 346.15h46.152v92.309h-46.152z" style="fill: rgb(255, 255, 255);"/>
    <path d="m715.38 807.69h-46.152v92.309h46.152v-46.152h46.156v-46.156z" style="fill: rgb(255, 255, 255);"/>
    <path d="m761.54 853.85h92.309v46.152h-92.309z" style="fill: rgb(255, 255, 255);"/>
    <path d="m853.85 761.54h46.152v92.309h-46.152z" style="fill: rgb(255, 255, 255);"/>
    <path d="m392.31 715.38v-46.152h-92.309v46.152h46.152v46.156h46.156z" style="fill: rgb(255, 255, 255);"/>
    <path d="m300 761.54h46.152v92.309h-46.152z" style="fill: rgb(255, 255, 255);"/>
    <path d="m346.15 853.85h92.309v46.152h-92.309z" style="fill: rgb(255, 255, 255);"/>
  </g>
</svg>