<svg xmlns="http://www.w3.org/2000/svg" viewBox="0 0 24 24" id="Interface-Essential-Cog-Double--Streamline-Pixel.svg" height="24" width="24"><desc>Interface Essential Cog Double Streamline Icon: https://streamlinehq.com</desc><title>interface-essential-cog-double</title><g><path d="m21.7125 5.715 0 1.1400000000000001 1.1475 0 0 1.1475 -1.1475 0 0 1.1400000000000001 2.2874999999999996 0 0 -3.4275 -2.2874999999999996 0z" fill="#000000" stroke-width="1"></path><path d="M21.7125 10.2825h1.1475v1.1475h-1.1475Z" fill="#000000" stroke-width="1"></path><path d="M21.7125 3.4275h1.1475v1.1400000000000001h-1.1475Z" fill="#000000" stroke-width="1"></path><path d="M20.572499999999998 11.43h1.1400000000000001v1.1400000000000001h-1.1400000000000001Z" fill="#000000" stroke-width="1"></path><path d="M20.572499999999998 9.1425h1.1400000000000001v1.1400000000000001h-1.1400000000000001Z" fill="#000000" stroke-width="1"></path><path d="M20.572499999999998 4.5675h1.1400000000000001v1.1475h-1.1400000000000001Z" fill="#000000" stroke-width="1"></path><path d="M20.572499999999998 2.2874999999999996h1.1400000000000001v1.1400000000000001h-1.1400000000000001Z" fill="#000000" stroke-width="1"></path><path d="M19.4325 12.57h1.1400000000000001v1.1400000000000001h-1.1400000000000001Z" fill="#000000" stroke-width="1"></path><path d="M19.4325 1.1400000000000001h1.1400000000000001v1.1475h-1.1400000000000001Z" fill="#000000" stroke-width="1"></path><path d="M18.285 11.43h1.1475v1.1400000000000001h-1.1475Z" fill="#000000" stroke-width="1"></path><path d="M18.285 2.2874999999999996h1.1475v1.1400000000000001h-1.1475Z" fill="#000000" stroke-width="1"></path><path d="m14.857499999999998 0 0 2.2874999999999996 1.1475 0 0 -1.1475 1.1400000000000001 0 0 1.1475 1.1400000000000001 0 0 -2.2874999999999996 -3.4275 0z" fill="#000000" stroke-width="1"></path><path d="M16.005 19.424999999999997h1.1400000000000001v1.1475h-1.1400000000000001Z" fill="#000000" stroke-width="1"></path><path d="m14.857499999999998 12.57 0 1.1400000000000001 2.2874999999999996 0 0 2.2874999999999996 -2.2874999999999996 0 0 1.1475 3.4275 0 0 -4.574999999999999 -3.4275 0z" fill="#000000" stroke-width="1"></path><path d="M14.857499999999998 20.572499999999998h1.1475v1.1400000000000001h-1.1475Z" fill="#000000" stroke-width="1"></path><path d="M14.857499999999998 18.285h1.1475v1.1400000000000001h-1.1475Z" fill="#000000" stroke-width="1"></path><path d="M14.857499999999998 10.2825h1.1475v1.1475h-1.1475Z" fill="#000000" stroke-width="1"></path><path d="m14.857499999999998 9.1425 1.1475 0 0 1.1400000000000001 2.2800000000000002 0 0 -1.1400000000000001 1.1475 0 0 -3.4275 -1.1475 0 0 1.1400000000000001 -1.1400000000000001 0 0 -1.1400000000000001 1.1400000000000001 0 0 -1.1475 -3.4275 0 0 1.1475 -1.1400000000000001 0 0 2.2874999999999996 1.1400000000000001 0 0 1.1400000000000001z" fill="#000000" stroke-width="1"></path><path d="M13.7175 21.7125h1.1400000000000001v1.1475h-1.1400000000000001Z" fill="#000000" stroke-width="1"></path><path d="M13.7175 17.145h1.1400000000000001v1.1400000000000001h-1.1400000000000001Z" fill="#000000" stroke-width="1"></path><path d="M13.7175 11.43h1.1400000000000001v1.1400000000000001h-1.1400000000000001Z" fill="#000000" stroke-width="1"></path><path d="M13.7175 2.2874999999999996h1.1400000000000001v1.1400000000000001h-1.1400000000000001Z" fill="#000000" stroke-width="1"></path><path d="M12.57 20.572499999999998h1.1475v1.1400000000000001h-1.1475Z" fill="#000000" stroke-width="1"></path><path d="M12.57 8.0025h1.1475v1.1400000000000001h-1.1475Z" fill="#000000" stroke-width="1"></path><path d="M12.57 1.1400000000000001h1.1475v1.1475h-1.1475Z" fill="#000000" stroke-width="1"></path><path d="M11.43 19.424999999999997h1.1400000000000001v1.1475h-1.1400000000000001Z" fill="#000000" stroke-width="1"></path><path d="M11.43 13.71h1.1400000000000001v2.2874999999999996h-1.1400000000000001Z" fill="#000000" stroke-width="1"></path><path d="M11.43 9.1425h1.1400000000000001v1.1400000000000001h-1.1400000000000001Z" fill="#000000" stroke-width="1"></path><path d="M11.43 2.2874999999999996h1.1400000000000001v1.1400000000000001h-1.1400000000000001Z" fill="#000000" stroke-width="1"></path><path d="m10.290000000000001 22.86 -2.2874999999999996 0 0 -2.2874999999999996 -1.1400000000000001 0 0 3.4275 4.5675 0 0 -3.4275 -1.1400000000000001 0 0 2.2874999999999996z" fill="#000000" stroke-width="1"></path><path d="M10.290000000000001 15.997499999999999h1.1400000000000001v1.1475h-1.1400000000000001Z" fill="#000000" stroke-width="1"></path><path d="M10.290000000000001 12.57h1.1400000000000001v1.1400000000000001h-1.1400000000000001Z" fill="#000000" stroke-width="1"></path><path d="M10.290000000000001 3.4275h1.1400000000000001v1.1400000000000001h-1.1400000000000001Z" fill="#000000" stroke-width="1"></path><path d="M8.0025 11.43h2.2874999999999996v1.1400000000000001h-2.2874999999999996Z" fill="#000000" stroke-width="1"></path><path d="M8.0025 17.145h2.2874999999999996v1.1400000000000001h-2.2874999999999996Z" fill="#000000" stroke-width="1"></path><path d="M6.862500000000001 15.997499999999999h1.1400000000000001v1.1475H6.862500000000001Z" fill="#000000" stroke-width="1"></path><path d="M6.862500000000001 12.57h1.1400000000000001v1.1400000000000001H6.862500000000001Z" fill="#000000" stroke-width="1"></path><path d="m8.0025 6.855 2.2874999999999996 0 0 2.2874999999999996 1.1400000000000001 0 0 -3.4275 -4.5675 0 0 3.4275 1.1400000000000001 0 0 -2.2874999999999996z" fill="#000000" stroke-width="1"></path><path d="M5.715 19.424999999999997h1.1475v1.1475H5.715Z" fill="#000000" stroke-width="1"></path><path d="M5.715 13.71h1.1475v2.2874999999999996H5.715Z" fill="#000000" stroke-width="1"></path><path d="M5.715 9.1425h1.1475v1.1400000000000001H5.715Z" fill="#000000" stroke-width="1"></path><path d="M4.574999999999999 20.572499999999998h1.1400000000000001v1.1400000000000001H4.574999999999999Z" fill="#000000" stroke-width="1"></path><path d="M4.574999999999999 8.0025h1.1400000000000001v1.1400000000000001H4.574999999999999Z" fill="#000000" stroke-width="1"></path><path d="M3.4275 21.7125H4.574999999999999v1.1475H3.4275Z" fill="#000000" stroke-width="1"></path><path d="M3.4275 17.145H4.574999999999999v1.1400000000000001H3.4275Z" fill="#000000" stroke-width="1"></path><path d="M3.4275 11.43H4.574999999999999v1.1400000000000001H3.4275Z" fill="#000000" stroke-width="1"></path><path d="M3.4275 6.855H4.574999999999999v1.1475H3.4275Z" fill="#000000" stroke-width="1"></path><path d="M2.2874999999999996 20.572499999999998h1.1400000000000001v1.1400000000000001H2.2874999999999996Z" fill="#000000" stroke-width="1"></path><path d="M2.2874999999999996 18.285h1.1400000000000001v1.1400000000000001H2.2874999999999996Z" fill="#000000" stroke-width="1"></path><path d="m1.1475 15.997499999999999 0 -2.2874999999999996 2.2800000000000002 0 0 -1.1400000000000001 -3.4275 0 0 4.574999999999999 3.4275 0 0 -1.1475 -2.2800000000000002 0z" fill="#000000" stroke-width="1"></path><path d="M2.2874999999999996 10.2825h1.1400000000000001v1.1475H2.2874999999999996Z" fill="#000000" stroke-width="1"></path><path d="M2.2874999999999996 8.0025h1.1400000000000001v1.1400000000000001H2.2874999999999996Z" fill="#000000" stroke-width="1"></path><path d="M1.1475 19.424999999999997h1.1400000000000001v1.1475H1.1475Z" fill="#000000" stroke-width="1"></path><path d="M1.1475 9.1425h1.1400000000000001v1.1400000000000001H1.1475Z" fill="#000000" stroke-width="1"></path></g></svg>