<?xml version="1.0" encoding="UTF-8"?>
<svg width="1200pt" height="1200pt" version="1.1" viewBox="0 0 1200 1200" xmlns="http://www.w3.org/2000/svg">
 <g>
  <path d="m421.93 180.61h-240v840h240l-0.11328-120h-119.89v-600h120z"/>
  <path d="m421.93 780.61h120v120h-120z"/>
  <path d="m541.93 660.61h120v120h-120z"/>
  <path d="m661.93 540.61h120v120h-120z"/>
  <path d="m541.93 420.61h120v120h-120z"/>
  <path d="m421.93 300.61h120v120h-120z"/>
  <path d="m781.93 781.08h120v120h-120z"/>
  <path d="m661.93 901.08h120v120h-120z"/>
  <path d="m901.93 661.08h120v120h-120z"/>
  <path d="m1021.9 541.08h120v120h-120z"/>
  <path d="m901.93 421.08h120v120h-120z"/>
  <path d="m781.93 301.08h120v120h-120z"/>
  <path d="m661.93 181.08h120v120h-120z"/>
 </g>
</svg>
