<?xml version="1.0" encoding="utf-8"?>
<svg width="1200pt" height="1200pt" version="1.1" viewBox="0 0 1200 1200" xmlns="http://www.w3.org/2000/svg">
  <defs/>
  <path d="M 1126.987 404.968 L 1172.882 359.826 L 1126.987 314.682 L 1173 269.421 L 920.456 21.01 L 874.443 66.27 L 828.542 21.121 L 782.648 66.265 L 736.753 21.121 L 438.316 314.673 L 484.212 359.817 L 438.311 404.966 L 484.212 450.115 L 438.316 495.259 L 461.261 517.828 L 484.223 540.397 L 392.435 630.683 L 369.371 653.374 L 47.975 969.511 L 25.031 992.075 L 47.982 1014.648 L 25.031 1037.223 L 48.094 1059.909 L 25.144 1082.483 L 116.938 1172.775 L 139.889 1150.201 L 162.832 1172.77 L 208.727 1127.626 L 185.783 1105.057 L 208.732 1082.482 L 185.783 1059.907 L 208.845 1037.222 L 231.796 1059.796 L 254.746 1037.222 L 277.691 1059.791 L 323.586 1014.647 L 300.641 992.079 L 323.591 969.504 L 346.536 992.073 L 392.43 946.929 L 369.486 924.36 L 392.436 901.785 L 369.486 879.211 L 392.43 856.641 L 415.38 879.216 L 438.331 856.641 L 461.275 879.211 L 484.226 856.636 L 438.331 811.493 L 461.275 788.924 L 484.226 811.498 L 507.175 788.924 L 530.121 811.493 L 644.971 698.521 L 690.872 743.67 L 736.767 698.526 L 782.662 743.67 L 828.562 698.521 L 851.511 721.09 L 874.462 743.665 L 1172.898 450.112 L 1149.948 427.538 L 1126.987 404.968 Z M 828.551 111.417 L 851.5 133.986 L 874.451 156.56 L 920.346 111.417 L 1081.092 269.532 L 1035.197 314.676 L 1081.097 359.826 L 989.304 450.116 L 736.76 201.705 L 805.604 133.988 L 828.551 111.417 Z M 93.99 1014.766 L 438.441 675.95 L 461.391 698.525 L 93.994 1059.91 L 71.038 1037.342 L 93.99 1014.766 Z" style="fill: rgb(255, 255, 255);"/>
</svg>