<svg width="710" height="338" viewBox="0 0 710 338" fill="none" xmlns="http://www.w3.org/2000/svg">
<g clip-path="url(#clip0_825_29835)">
<g clip-path="url(#clip1_825_29835)">
<path d="M1 24C1 10.7452 11.7452 0 25 0H169C182.255 0 193 10.7452 193 24V168C193 181.255 182.255 192 169 192H25C11.7452 192 1 181.255 1 168V24Z" fill="#EA1B15"/>
<path d="M133 48H143.311C144.246 48 145 48.7542 145 49.6895V76.2804C145 77.2157 144.276 77.9699 143.341 78.0001H134.689C133.754 78.0001 133 77.2458 133 76.3106V68.5313L66.2969 132H83.3111C84.2461 132 85.0001 132.754 85.0001 133.69V142.311C85.0001 143.246 84.2461 144 83.3111 144H50.689C49.754 144 49 143.246 49 142.311V132L124.61 60H116.689C115.754 60 115 59.2458 115 58.3105V49.7197C115 48.7844 115.754 48.0302 116.689 48.0302L133 48ZM73.0001 60L101.311 59.9699C102.246 59.9699 103 59.2156 103 58.2804V49.6895C103 48.7542 102.246 48 101.341 48H50.7493C49.8143 48 49.0603 48.7542 49.0603 49.6895V76.3106C49.0603 77.2458 49.8143 78.0001 50.7493 78.0001H59.3412C60.2762 78.0001 61 77.2458 61 76.3106V60H73.0001ZM133 132H98.6891C97.7542 132 97.0001 132.754 97.0001 133.69V142.311C97.0001 143.246 97.7542 144 98.6891 144H143.311C144.246 144 145 143.246 145 142.311V115.549C145 114.614 144.246 113.86 143.311 113.86H134.689C133.754 113.86 133 114.614 133 115.549V132Z" fill="white"/>
</g>
<g clip-path="url(#clip2_825_29835)">
<path d="M241 138.26V127.302L281.633 89.1834H253.132V96.6978H241.656V78.7451H296.935V89.7026L256.63 127.603H286.114V119.979H297.591V138.26H241Z" fill="#000514"/>
<path d="M332.458 139.626C326.501 139.626 321.282 138.287 316.746 135.637C312.238 132.986 308.685 129.297 306.089 124.625C303.521 119.952 302.209 114.542 302.209 108.448C302.209 102.355 303.466 96.9442 306.007 92.2716C308.549 87.599 312.074 83.9101 316.61 81.2595C321.146 78.609 326.337 77.27 332.212 77.27C338.087 77.27 343.279 78.609 347.815 81.2595C352.324 83.9101 355.876 87.599 358.417 92.2716C360.959 96.9442 362.216 102.355 362.216 108.448C362.216 114.542 360.959 119.952 358.417 124.625C355.876 129.297 352.378 132.986 347.897 135.637C343.416 138.287 338.279 139.626 332.486 139.626H332.458ZM332.458 129.27C336.038 129.27 339.208 128.368 341.967 126.592C344.755 124.816 346.913 122.357 348.444 119.269C350.001 116.181 350.766 112.574 350.766 108.448C350.766 104.322 350.001 100.715 348.444 97.6273C346.886 94.5396 344.7 92.0803 341.831 90.3042C338.962 88.528 335.765 87.6263 332.185 87.6263C328.605 87.6263 325.326 88.528 322.539 90.3042C319.752 92.0803 317.593 94.5396 315.981 97.6273C314.396 100.715 313.604 104.322 313.604 108.448C313.604 112.574 314.396 116.181 315.981 119.269C317.566 122.357 319.779 124.816 322.649 126.592C325.518 128.368 328.769 129.27 332.404 129.27H332.458Z" fill="#000514"/>
<path d="M398.749 139.626C392.792 139.626 387.573 138.287 383.037 135.637C378.528 132.986 374.976 129.297 372.38 124.625C369.812 119.952 368.5 114.542 368.5 108.448C368.5 102.355 369.757 96.9442 372.298 92.2716C374.839 87.599 378.364 83.9101 382.9 81.2595C387.436 78.609 392.628 77.27 398.503 77.27C404.378 77.27 409.57 78.609 414.106 81.2595C418.615 83.9101 422.167 87.599 424.708 92.2716C427.249 96.9442 428.506 102.355 428.506 108.448C428.506 114.542 427.249 119.952 424.708 124.625C422.167 129.297 418.669 132.986 414.188 135.637C409.707 138.287 404.569 139.626 398.776 139.626H398.749ZM398.749 129.27C402.329 129.27 405.498 128.368 408.258 126.592C411.045 124.816 413.204 122.357 414.734 119.269C416.292 116.181 417.057 112.574 417.057 108.448C417.057 104.322 416.292 100.715 414.734 97.6273C413.177 94.5396 410.991 92.0803 408.122 90.3042C405.252 88.528 402.055 87.6263 398.476 87.6263C394.896 87.6263 391.617 88.528 388.83 90.3042C386.043 92.0803 383.884 94.5396 382.272 97.6273C380.687 100.715 379.895 104.322 379.895 108.448C379.895 112.574 380.687 116.181 382.272 119.269C383.857 122.357 386.07 124.816 388.939 126.592C391.808 128.368 395.06 129.27 398.694 129.27H398.749Z" fill="#000514"/>
<path d="M523.16 83.8534C519.061 79.4541 513.46 77.2407 506.328 77.2407C501.491 77.2407 497.338 78.443 493.895 80.8203C490.506 83.143 487.91 86.504 486.107 90.8487C485.096 88.0889 483.757 85.7389 482.008 83.8534C477.909 79.4541 472.308 77.2407 465.176 77.2407C460.339 77.2407 456.186 78.443 452.743 80.8203C450.366 82.4599 448.425 84.6185 446.813 87.2418L446.267 78.689H435.665V138.203H446.977V107.271C446.977 101.096 448.316 96.2864 451.021 92.8708C453.727 89.4551 457.497 87.761 462.334 87.761C465.203 87.8429 467.717 88.4441 469.903 89.5371C472.089 90.6574 473.783 92.6249 475.013 95.4394C476.243 98.2539 476.871 102.353 476.871 107.763V138.231H488.184V107.299C488.184 101.123 489.523 96.3138 492.228 92.8981C494.933 89.4824 498.704 87.7883 503.541 87.7883C506.41 87.8703 508.896 88.4714 511.028 89.5644C513.159 90.6848 514.881 92.6522 516.137 95.4667C517.394 98.2812 518.05 102.38 518.05 107.79V138.258H529.226V104.211C529.308 95.0841 527.314 88.3348 523.215 83.9081L523.16 83.8534Z" fill="#000514"/>
<path d="M542.507 69.1254C540.266 69.1254 538.326 68.2783 536.687 66.5841C535.047 64.89 534.2 62.9226 534.2 60.6819C534.2 58.4412 535.02 56.3918 536.687 54.7796C538.326 53.1674 540.266 52.375 542.507 52.375C544.748 52.375 546.797 53.1674 548.409 54.7796C550.022 56.3918 550.814 58.3319 550.814 60.6819C550.814 63.0319 550.022 64.89 548.409 66.5841C546.797 68.2783 544.857 69.1254 542.507 69.1254ZM536.796 138.204L537.042 78.6892H548.218L548.109 138.204H536.796Z" fill="#000514"/>
<path d="M603.606 83.8534C599.507 79.4541 593.905 77.2407 586.773 77.2407C581.937 77.2407 577.783 78.443 574.34 80.8203C571.963 82.4599 570.023 84.6185 568.411 87.2418L567.864 78.689H557.262V138.203H568.575V107.271C568.575 101.096 569.914 96.2864 572.619 92.8708C575.324 89.4551 579.095 87.761 583.931 87.761C586.801 87.8429 589.315 88.4441 591.501 89.5371C593.687 90.6574 595.381 92.6249 596.61 95.4394C597.84 98.2539 598.468 102.353 598.468 107.763V138.231H609.781V104.183C609.781 95.0568 607.732 88.3075 603.66 83.8808L603.606 83.8534Z" fill="#000514"/>
<path d="M635.085 73.3335C635.085 69.7539 635.714 67.1306 636.998 65.4092C638.255 63.715 640.222 62.8406 642.818 62.8406C643.693 62.8406 644.731 63.0319 645.961 63.3871C647.19 63.7423 648.639 64.3161 650.305 65.1086L654.459 56.4191C652.246 55.3808 650.059 54.561 647.901 53.9872C645.769 53.386 643.775 53.0854 641.944 53.0854C635.823 53.0854 631.26 54.6976 628.254 57.8947C625.248 61.1191 623.718 65.8464 623.718 72.1038V78.6619H613.116V88.0618H623.718V138.176H635.031V88.0618H651.453V78.6619H635.031V73.3062L635.085 73.3335Z" fill="#000514"/>
<path d="M679.243 139.626C673.286 139.626 668.067 138.287 663.531 135.637C659.022 132.986 655.47 129.297 652.874 124.625C650.306 119.952 648.994 114.542 648.994 108.448C648.994 102.355 650.251 96.9442 652.792 92.2716C655.334 87.599 658.859 83.9101 663.395 81.2595C667.931 78.609 673.122 77.27 678.997 77.27C684.872 77.27 690.064 78.609 694.6 81.2595C699.109 83.9101 702.661 87.599 705.202 92.2716C707.744 96.9442 709 102.355 709 108.448C709 114.542 707.744 119.952 705.202 124.625C702.661 129.297 699.163 132.986 694.682 135.637C690.201 138.287 685.064 139.626 679.271 139.626H679.243ZM679.243 129.27C682.823 129.27 685.993 128.368 688.752 126.592C691.54 124.816 693.698 122.357 695.229 119.269C696.786 116.181 697.551 112.574 697.551 108.448C697.551 104.322 696.786 100.715 695.229 97.6273C693.671 94.5396 691.485 92.0803 688.616 90.3042C685.747 88.528 682.55 87.6263 678.97 87.6263C675.39 87.6263 672.111 88.528 669.324 90.3042C666.537 92.0803 664.378 94.5396 662.766 97.6273C661.181 100.715 660.389 104.322 660.389 108.448C660.389 112.574 661.181 116.181 662.766 119.269C664.351 122.357 666.564 124.816 669.433 126.592C672.303 128.368 675.554 129.27 679.189 129.27H679.243Z" fill="#000514"/>
</g>
</g>
<path d="M20.605 312.78C18.0917 312.78 15.86 312.52 13.91 312C11.96 311.437 10.27 310.678 8.84 309.725C7.41 308.728 6.24 307.645 5.33 306.475C4.42 305.262 3.74833 303.983 3.315 302.64L8.58 300.82C9.23 302.727 10.53 304.395 12.48 305.825C14.4733 307.212 16.9 307.905 19.76 307.905C23.27 307.905 26.0217 307.212 28.015 305.825C30.0083 304.438 31.005 302.597 31.005 300.3C31.005 298.177 30.1167 296.465 28.34 295.165C26.5633 293.822 24.2233 292.782 21.32 292.045L16.315 290.745C14.2783 290.225 12.3933 289.467 10.66 288.47C8.97 287.43 7.605 286.13 6.565 284.57C5.56833 282.967 5.07 281.06 5.07 278.85C5.07 274.733 6.39167 271.527 9.035 269.23C11.7217 266.89 15.5783 265.72 20.605 265.72C23.595 265.72 26.1733 266.218 28.34 267.215C30.5067 268.168 32.2617 269.403 33.605 270.92C34.9917 272.393 35.9667 273.997 36.53 275.73L31.33 277.55C30.5067 275.383 29.12 273.693 27.17 272.48C25.22 271.223 22.8583 270.595 20.085 270.595C17.1817 270.595 14.8633 271.31 13.13 272.74C11.44 274.127 10.595 276.033 10.595 278.46C10.595 280.54 11.2667 282.143 12.61 283.27C13.9533 284.353 15.7083 285.155 17.875 285.675L22.88 286.91C27.3 287.95 30.68 289.683 33.02 292.11C35.4033 294.493 36.595 297.072 36.595 299.845C36.595 302.228 35.9883 304.417 34.775 306.41C33.5617 308.36 31.7633 309.92 29.38 311.09C27.04 312.217 24.115 312.78 20.605 312.78ZM58.7118 312.78C55.5484 312.78 52.7534 312.065 50.3268 310.635C47.9001 309.162 45.9934 307.147 44.6068 304.59C43.2634 302.033 42.5918 299.087 42.5918 295.75C42.5918 292.413 43.2634 289.467 44.6068 286.91C45.9934 284.353 47.8784 282.36 50.2618 280.93C52.6884 279.457 55.4618 278.72 58.5818 278.72C61.5718 278.72 64.1718 279.478 66.3818 280.995C68.6351 282.468 70.3684 284.548 71.5818 287.235C72.7951 289.922 73.4018 293.085 73.4018 296.725H68.2018C68.2018 293.952 67.8334 291.59 67.0968 289.64C66.3601 287.647 65.2551 286.108 63.7818 285.025C62.3518 283.942 60.5968 283.4 58.5168 283.4C56.3934 283.4 54.5084 283.92 52.8618 284.96C51.2584 285.957 50.0234 287.387 49.1568 289.25C48.2901 291.113 47.8568 293.302 47.8568 295.815C47.8568 298.285 48.3334 300.43 49.2868 302.25C50.2401 304.027 51.5618 305.435 53.2518 306.475C54.9418 307.472 56.8484 307.97 58.9718 307.97C61.2251 307.97 63.1318 307.428 64.6918 306.345C66.2518 305.262 67.4868 303.853 68.3968 302.12L72.9468 304.395C72.1234 306.085 71.0184 307.558 69.6318 308.815C68.2884 310.072 66.6851 311.047 64.8218 311.74C63.0018 312.433 60.9651 312.78 58.7118 312.78ZM46.0368 296.725L46.1018 292.24H70.2168V296.725H46.0368ZM79.9602 312V266.5H85.1602V312H79.9602ZM94.2424 312V266.5H99.4424V312H94.2424ZM140.639 312.78C138.126 312.78 135.894 312.52 133.944 312C131.994 311.437 130.304 310.678 128.874 309.725C127.444 308.728 126.274 307.645 125.364 306.475C124.454 305.262 123.783 303.983 123.349 302.64L128.614 300.82C129.264 302.727 130.564 304.395 132.514 305.825C134.508 307.212 136.934 307.905 139.794 307.905C143.304 307.905 146.056 307.212 148.049 305.825C150.043 304.438 151.039 302.597 151.039 300.3C151.039 298.177 150.151 296.465 148.374 295.165C146.598 293.822 144.258 292.782 141.354 292.045L136.349 290.745C134.313 290.225 132.428 289.467 130.694 288.47C129.004 287.43 127.639 286.13 126.599 284.57C125.603 282.967 125.104 281.06 125.104 278.85C125.104 274.733 126.426 271.527 129.069 269.23C131.756 266.89 135.613 265.72 140.639 265.72C143.629 265.72 146.208 266.218 148.374 267.215C150.541 268.168 152.296 269.403 153.639 270.92C155.026 272.393 156.001 273.997 156.564 275.73L151.364 277.55C150.541 275.383 149.154 273.693 147.204 272.48C145.254 271.223 142.893 270.595 140.119 270.595C137.216 270.595 134.898 271.31 133.164 272.74C131.474 274.127 130.629 276.033 130.629 278.46C130.629 280.54 131.301 282.143 132.644 283.27C133.988 284.353 135.743 285.155 137.909 285.675L142.914 286.91C147.334 287.95 150.714 289.683 153.054 292.11C155.438 294.493 156.629 297.072 156.629 299.845C156.629 302.228 156.023 304.417 154.809 306.41C153.596 308.36 151.798 309.92 149.414 311.09C147.074 312.217 144.149 312.78 140.639 312.78ZM164.511 312V279.5H169.386L169.711 285.48V312H164.511ZM187.326 312V295.36L192.526 293.41V312H187.326ZM210.206 312V295.36L215.406 293.41V312H210.206ZM187.326 295.36C187.326 292.153 186.958 289.705 186.221 288.015C185.484 286.325 184.466 285.177 183.166 284.57C181.866 283.92 180.393 283.595 178.746 283.595C175.886 283.595 173.654 284.613 172.051 286.65C170.491 288.643 169.711 291.482 169.711 295.165H167.176C167.176 291.742 167.674 288.795 168.671 286.325C169.668 283.855 171.098 281.97 172.961 280.67C174.868 279.37 177.164 278.72 179.851 278.72C183.794 278.72 186.893 279.933 189.146 282.36C191.443 284.787 192.569 288.47 192.526 293.41L187.326 295.36ZM210.206 295.36C210.206 292.153 209.816 289.705 209.036 288.015C208.299 286.325 207.281 285.177 205.981 284.57C204.681 283.92 203.208 283.595 201.561 283.595C198.701 283.595 196.469 284.613 194.866 286.65C193.306 288.643 192.526 291.482 192.526 295.165H189.991C189.991 291.742 190.489 288.795 191.486 286.325C192.483 283.855 193.934 281.97 195.841 280.67C197.748 279.37 200.044 278.72 202.731 278.72C206.631 278.72 209.708 279.933 211.961 282.36C214.258 284.787 215.406 288.47 215.406 293.41L210.206 295.36ZM243.628 312L243.303 306.67V294.84C243.303 292.283 242.999 290.182 242.393 288.535C241.829 286.845 240.941 285.588 239.728 284.765C238.558 283.898 236.998 283.465 235.048 283.465C233.184 283.465 231.559 283.833 230.173 284.57C228.829 285.307 227.724 286.455 226.858 288.015L222.178 286.13C223.044 284.613 224.084 283.292 225.298 282.165C226.511 281.038 227.919 280.193 229.523 279.63C231.169 279.023 233.033 278.72 235.113 278.72C238.103 278.72 240.594 279.305 242.588 280.475C244.581 281.645 246.076 283.4 247.073 285.74C248.069 288.037 248.546 290.918 248.503 294.385L248.438 312H243.628ZM233.878 312.78C230.064 312.78 227.074 311.913 224.908 310.18C222.784 308.403 221.723 305.955 221.723 302.835C221.723 299.542 222.806 297.028 224.973 295.295C227.183 293.518 230.259 292.63 234.203 292.63H243.498V296.985H235.373C232.339 296.985 230.173 297.483 228.873 298.48C227.616 299.477 226.988 300.907 226.988 302.77C226.988 304.46 227.616 305.803 228.873 306.8C230.129 307.753 231.884 308.23 234.138 308.23C236.001 308.23 237.626 307.797 239.013 306.93C240.399 306.063 241.461 304.893 242.198 303.42C242.934 301.903 243.303 300.192 243.303 298.285H246.488C246.488 302.705 245.404 306.237 243.238 308.88C241.071 311.48 237.951 312.78 233.878 312.78ZM259.602 294.385C259.602 290.875 260.274 288.037 261.617 285.87C262.961 283.66 264.672 282.035 266.752 280.995C268.876 279.912 271.107 279.37 273.447 279.37V284.245C271.541 284.245 269.699 284.57 267.922 285.22C266.189 285.827 264.759 286.845 263.632 288.275C262.506 289.705 261.942 291.655 261.942 294.125L259.602 294.385ZM256.742 312V279.5H261.942V312H256.742ZM290.925 312.78C287.762 312.78 285.314 311.957 283.58 310.31C281.847 308.663 280.98 306.345 280.98 303.355V269.36H286.18V302.835C286.18 304.482 286.614 305.76 287.48 306.67C288.39 307.537 289.647 307.97 291.25 307.97C291.77 307.97 292.269 307.905 292.745 307.775C293.265 307.602 293.937 307.212 294.76 306.605L296.775 310.83C295.649 311.567 294.63 312.065 293.72 312.325C292.81 312.628 291.879 312.78 290.925 312.78ZM275.325 284.115V279.5H295.93V284.115H275.325ZM317.315 312.78C314.152 312.78 311.357 312.065 308.93 310.635C306.504 309.162 304.597 307.147 303.21 304.59C301.867 302.033 301.195 299.087 301.195 295.75C301.195 292.413 301.867 289.467 303.21 286.91C304.597 284.353 306.482 282.36 308.865 280.93C311.292 279.457 314.065 278.72 317.185 278.72C320.175 278.72 322.775 279.478 324.985 280.995C327.239 282.468 328.972 284.548 330.185 287.235C331.399 289.922 332.005 293.085 332.005 296.725H326.805C326.805 293.952 326.437 291.59 325.7 289.64C324.964 287.647 323.859 286.108 322.385 285.025C320.955 283.942 319.2 283.4 317.12 283.4C314.997 283.4 313.112 283.92 311.465 284.96C309.862 285.957 308.627 287.387 307.76 289.25C306.894 291.113 306.46 293.302 306.46 295.815C306.46 298.285 306.937 300.43 307.89 302.25C308.844 304.027 310.165 305.435 311.855 306.475C313.545 307.472 315.452 307.97 317.575 307.97C319.829 307.97 321.735 307.428 323.295 306.345C324.855 305.262 326.09 303.853 327 302.12L331.55 304.395C330.727 306.085 329.622 307.558 328.235 308.815C326.892 310.072 325.289 311.047 323.425 311.74C321.605 312.433 319.569 312.78 317.315 312.78ZM304.64 296.725L304.705 292.24H328.82V296.725H304.64ZM341.424 294.385C341.424 290.875 342.095 288.037 343.439 285.87C344.782 283.66 346.494 282.035 348.574 280.995C350.697 279.912 352.929 279.37 355.269 279.37V284.245C353.362 284.245 351.52 284.57 349.744 285.22C348.01 285.827 346.58 286.845 345.454 288.275C344.327 289.705 343.764 291.655 343.764 294.125L341.424 294.385ZM338.564 312V279.5H343.764V312H338.564ZM362.737 312.91C361.74 312.91 360.873 312.563 360.137 311.87C359.443 311.133 359.097 310.288 359.097 309.335C359.097 308.338 359.443 307.493 360.137 306.8C360.873 306.063 361.74 305.695 362.737 305.695C363.733 305.695 364.578 306.063 365.272 306.8C365.965 307.493 366.312 308.338 366.312 309.335C366.312 310.288 365.965 311.133 365.272 311.87C364.578 312.563 363.733 312.91 362.737 312.91ZM427.742 312L441.782 266.5H447.307L433.202 312H427.742ZM400.052 312L386.142 266.5H391.667L405.447 312H400.052ZM400.637 312L414.027 266.5H419.292L405.902 312H400.637ZM427.287 312L414.222 266.5H419.487L432.747 312H427.287ZM452.829 312L452.959 279.5H458.159L458.029 312H452.829ZM455.494 271.96C454.627 271.96 453.869 271.635 453.219 270.985C452.569 270.335 452.244 269.577 452.244 268.71C452.244 267.8 452.569 267.042 453.219 266.435C453.869 265.785 454.627 265.46 455.494 265.46C456.404 265.46 457.162 265.785 457.769 266.435C458.419 267.042 458.744 267.8 458.744 268.71C458.744 269.577 458.419 270.335 457.769 270.985C457.162 271.635 456.404 271.96 455.494 271.96ZM467.612 312V279.5H472.487L472.812 285.48V312H467.612ZM490.427 312V295.36L495.627 293.41V312H490.427ZM490.427 295.36C490.427 292.153 490.058 289.705 489.322 288.015C488.585 286.325 487.567 285.177 486.267 284.57C484.967 283.92 483.493 283.595 481.847 283.595C478.987 283.595 476.755 284.613 475.152 286.65C473.592 288.643 472.812 291.482 472.812 295.165H470.277C470.277 291.742 470.775 288.795 471.772 286.325C472.768 283.855 474.198 281.97 476.062 280.67C477.968 279.37 480.265 278.72 482.952 278.72C486.895 278.72 489.993 279.933 492.247 282.36C494.543 284.787 495.67 288.47 495.627 293.41L490.427 295.36ZM521.411 312V266.5H526.936V312H521.411ZM526.416 292.045V287.04H545.916V292.045H526.416ZM526.416 271.505V266.5H548.451V271.505H526.416ZM574.848 312L574.523 306.67V294.84C574.523 292.283 574.22 290.182 573.613 288.535C573.05 286.845 572.162 285.588 570.948 284.765C569.778 283.898 568.218 283.465 566.268 283.465C564.405 283.465 562.78 283.833 561.393 284.57C560.05 285.307 558.945 286.455 558.078 288.015L553.398 286.13C554.265 284.613 555.305 283.292 556.518 282.165C557.732 281.038 559.14 280.193 560.743 279.63C562.39 279.023 564.253 278.72 566.333 278.72C569.323 278.72 571.815 279.305 573.808 280.475C575.802 281.645 577.297 283.4 578.293 285.74C579.29 288.037 579.767 290.918 579.723 294.385L579.658 312H574.848ZM565.098 312.78C561.285 312.78 558.295 311.913 556.128 310.18C554.005 308.403 552.943 305.955 552.943 302.835C552.943 299.542 554.027 297.028 556.193 295.295C558.403 293.518 561.48 292.63 565.423 292.63H574.718V296.985H566.593C563.56 296.985 561.393 297.483 560.093 298.48C558.837 299.477 558.208 300.907 558.208 302.77C558.208 304.46 558.837 305.803 560.093 306.8C561.35 307.753 563.105 308.23 565.358 308.23C567.222 308.23 568.847 307.797 570.233 306.93C571.62 306.063 572.682 304.893 573.418 303.42C574.155 301.903 574.523 300.192 574.523 298.285H577.708C577.708 302.705 576.625 306.237 574.458 308.88C572.292 311.48 569.172 312.78 565.098 312.78ZM599.338 312.78C596.955 312.78 594.875 312.433 593.098 311.74C591.321 311.003 589.826 310.05 588.613 308.88C587.443 307.71 586.598 306.432 586.078 305.045L590.628 303.16C591.365 304.633 592.47 305.825 593.943 306.735C595.416 307.645 597.041 308.1 598.818 308.1C600.855 308.1 602.566 307.71 603.953 306.93C605.34 306.107 606.033 304.958 606.033 303.485C606.033 302.142 605.513 301.058 604.473 300.235C603.476 299.412 601.981 298.74 599.988 298.22L596.868 297.375C593.921 296.595 591.625 295.425 589.978 293.865C588.331 292.262 587.508 290.463 587.508 288.47C587.508 285.393 588.505 283.01 590.498 281.32C592.535 279.587 595.546 278.72 599.533 278.72C601.44 278.72 603.173 279.002 604.733 279.565C606.293 280.128 607.636 280.93 608.763 281.97C609.89 282.967 610.713 284.158 611.233 285.545L606.683 287.56C606.12 286.087 605.188 285.025 603.888 284.375C602.588 283.725 601.006 283.4 599.143 283.4C597.15 283.4 595.59 283.833 594.463 284.7C593.336 285.523 592.773 286.693 592.773 288.21C592.773 289.077 593.228 289.9 594.138 290.68C595.091 291.417 596.478 292.023 598.298 292.5L601.548 293.345C603.671 293.865 605.448 294.645 606.878 295.685C608.308 296.682 609.391 297.83 610.128 299.13C610.865 300.43 611.233 301.817 611.233 303.29C611.233 305.24 610.713 306.93 609.673 308.36C608.633 309.79 607.225 310.895 605.448 311.675C603.671 312.412 601.635 312.78 599.338 312.78ZM630.461 312.78C627.298 312.78 624.85 311.957 623.116 310.31C621.383 308.663 620.516 306.345 620.516 303.355V269.36H625.716V302.835C625.716 304.482 626.15 305.76 627.016 306.67C627.926 307.537 629.183 307.97 630.786 307.97C631.306 307.97 631.805 307.905 632.281 307.775C632.801 307.602 633.473 307.212 634.296 306.605L636.311 310.83C635.185 311.567 634.166 312.065 633.256 312.325C632.346 312.628 631.415 312.78 630.461 312.78ZM614.861 284.115V279.5H635.466V284.115H614.861ZM656.851 312.78C653.688 312.78 650.893 312.065 648.466 310.635C646.04 309.162 644.133 307.147 642.746 304.59C641.403 302.033 640.731 299.087 640.731 295.75C640.731 292.413 641.403 289.467 642.746 286.91C644.133 284.353 646.018 282.36 648.401 280.93C650.828 279.457 653.601 278.72 656.721 278.72C659.711 278.72 662.311 279.478 664.521 280.995C666.775 282.468 668.508 284.548 669.721 287.235C670.935 289.922 671.541 293.085 671.541 296.725H666.341C666.341 293.952 665.973 291.59 665.236 289.64C664.5 287.647 663.395 286.108 661.921 285.025C660.491 283.942 658.736 283.4 656.656 283.4C654.533 283.4 652.648 283.92 651.001 284.96C649.398 285.957 648.163 287.387 647.296 289.25C646.43 291.113 645.996 293.302 645.996 295.815C645.996 298.285 646.473 300.43 647.426 302.25C648.38 304.027 649.701 305.435 651.391 306.475C653.081 307.472 654.988 307.97 657.111 307.97C659.365 307.97 661.271 307.428 662.831 306.345C664.391 305.262 665.626 303.853 666.536 302.12L671.086 304.395C670.263 306.085 669.158 307.558 667.771 308.815C666.428 310.072 664.825 311.047 662.961 311.74C661.141 312.433 659.105 312.78 656.851 312.78ZM644.176 296.725L644.241 292.24H668.356V296.725H644.176ZM680.96 294.385C680.96 290.875 681.631 288.037 682.975 285.87C684.318 283.66 686.03 282.035 688.11 280.995C690.233 279.912 692.465 279.37 694.805 279.37V284.245C692.898 284.245 691.056 284.57 689.28 285.22C687.546 285.827 686.116 286.845 684.99 288.275C683.863 289.705 683.3 291.655 683.3 294.125L680.96 294.385ZM678.1 312V279.5H683.3V312H678.1ZM702.273 312.91C701.276 312.91 700.409 312.563 699.673 311.87C698.979 311.133 698.633 310.288 698.633 309.335C698.633 308.338 698.979 307.493 699.673 306.8C700.409 306.063 701.276 305.695 702.273 305.695C703.269 305.695 704.114 306.063 704.808 306.8C705.501 307.493 705.848 308.338 705.848 309.335C705.848 310.288 705.501 311.133 704.808 311.87C704.114 312.563 703.269 312.91 702.273 312.91Z" fill="#000514"/>
<defs>
<clipPath id="clip0_825_29835">
<rect width="708" height="192" fill="white" transform="translate(1)"/>
</clipPath>
<clipPath id="clip1_825_29835">
<rect width="192" height="192" fill="white" transform="translate(1)"/>
</clipPath>
<clipPath id="clip2_825_29835">
<rect width="468" height="87.2496" fill="white" transform="translate(241 52.375)"/>
</clipPath>
</defs>
</svg>
